<svg xmlns="http://www.w3.org/2000/svg" xmlns:xlink="http://www.w3.org/1999/xlink" width="500" zoomAndPan="magnify" viewBox="0 0 375 374.999991" height="500" preserveAspectRatio="xMidYMid meet" version="1.0"><defs><clipPath id="3723e7b989"><path d="M 4.105469 68 L 370.855469 68 L 370.855469 307.042969 L 4.105469 307.042969 Z M 4.105469 68 " clip-rule="nonzero"/></clipPath></defs><rect x="-37.5" width="450" fill="#ffffff" y="-37.499999" height="449.999989" fill-opacity="1"/><rect x="-37.5" width="450" fill="#ffffff" y="-37.499999" height="449.999989" fill-opacity="1"/><path fill="#a658b7" d="M 177.542969 208.144531 L 170.5 208.144531 C 168.476562 208.144531 166.636719 207.3125 165.300781 205.972656 L 165.089844 205.769531 C 163.878906 204.460938 163.128906 202.699219 163.128906 200.761719 C 163.128906 198.09375 160.96875 195.921875 158.292969 195.921875 C 155.621094 195.921875 153.460938 198.085938 153.460938 200.761719 C 153.460938 205.285156 155.253906 209.421875 158.167969 212.492188 L 158.46875 212.824219 C 161.261719 215.621094 165.023438 217.445312 169.191406 217.765625 L 169.191406 223.242188 C 169.191406 225.910156 171.351562 228.085938 174.027344 228.085938 C 176.699219 228.085938 178.863281 225.921875 178.863281 223.242188 L 178.863281 217.765625 C 183.027344 217.445312 186.792969 215.621094 189.585938 212.824219 L 189.585938 212.804688 C 192.671875 209.714844 194.585938 205.449219 194.585938 200.761719 C 194.585938 196.078125 192.664062 191.8125 189.585938 188.722656 L 189.566406 188.703125 C 186.480469 185.613281 182.222656 183.695312 177.542969 183.695312 L 170.5 183.695312 C 168.476562 183.695312 166.636719 182.859375 165.300781 181.519531 L 165.089844 181.320312 C 163.878906 180.007812 163.128906 178.246094 163.128906 176.3125 C 163.128906 174.277344 163.953125 172.433594 165.28125 171.101562 L 165.300781 171.101562 C 166.636719 169.761719 168.476562 168.929688 170.5 168.929688 L 177.542969 168.929688 C 179.578125 168.929688 181.417969 169.761719 182.753906 171.09375 C 184.082031 172.433594 184.914062 174.285156 184.914062 176.3125 C 184.914062 178.980469 187.074219 181.152344 189.75 181.152344 C 192.425781 181.152344 194.585938 178.988281 194.585938 176.3125 C 194.585938 171.625 192.664062 167.359375 189.585938 164.269531 L 189.566406 164.25 C 186.773438 161.453125 183.019531 159.636719 178.863281 159.308594 L 178.863281 153.832031 C 178.863281 151.152344 176.699219 148.988281 174.027344 148.988281 C 171.351562 148.988281 169.191406 151.152344 169.191406 153.832031 L 169.191406 159.308594 C 165.023438 159.628906 161.261719 161.453125 158.476562 164.261719 C 155.382812 167.359375 153.460938 171.625 153.460938 176.300781 C 153.460938 180.824219 155.253906 184.960938 158.167969 188.03125 L 158.46875 188.363281 C 161.554688 191.453125 165.820312 193.371094 170.511719 193.371094 L 177.550781 193.371094 C 179.585938 193.371094 181.425781 194.207031 182.761719 195.535156 C 184.089844 196.875 184.925781 198.726562 184.925781 200.753906 C 184.925781 202.789062 184.089844 204.632812 182.753906 205.964844 C 181.40625 207.3125 179.566406 208.144531 177.542969 208.144531 Z M 177.542969 208.144531 " fill-opacity="1" fill-rule="nonzero"/><path fill="#a658b7" d="M 174.027344 249.941406 C 190.957031 249.941406 206.289062 243.0625 217.378906 231.957031 C 228.476562 220.847656 235.335938 205.496094 235.335938 188.539062 C 235.335938 171.578125 228.46875 156.226562 217.378906 145.117188 C 206.289062 134.003906 190.957031 127.132812 174.027344 127.132812 C 157.09375 127.132812 141.765625 134.011719 130.675781 145.117188 C 119.578125 156.234375 112.71875 171.589844 112.71875 188.539062 C 112.71875 205.496094 119.585938 220.847656 130.675781 231.957031 C 141.765625 243.070312 157.09375 249.941406 174.027344 249.941406 Z M 138.421875 152.878906 C 147.535156 143.753906 160.125 138.113281 174.027344 138.113281 C 187.929688 138.113281 200.519531 143.761719 209.628906 152.878906 C 218.742188 162.003906 224.375 174.613281 224.375 188.539062 C 224.375 202.460938 218.734375 215.070312 209.628906 224.195312 C 200.519531 233.324219 187.929688 238.960938 174.027344 238.960938 C 160.125 238.960938 147.535156 233.3125 138.421875 224.195312 C 129.3125 215.070312 123.679688 202.460938 123.679688 188.539062 C 123.671875 174.613281 129.3125 162.003906 138.421875 152.878906 Z M 138.421875 152.878906 " fill-opacity="1" fill-rule="nonzero"/><g clip-path="url(#3723e7b989)"><path fill="#a658b7" d="M 370.285156 233.882812 L 343.949219 106.214844 L 343.949219 106.183594 C 343.949219 105.40625 343.785156 104.664062 343.492188 103.992188 L 337.007812 72.589844 C 336.402344 69.628906 333.519531 67.71875 330.570312 68.324219 L 174.128906 100.699219 L 9.582031 100.699219 C 6.558594 100.699219 4.105469 103.160156 4.105469 106.183594 L 4.105469 270.890625 C 4.105469 273.914062 6.558594 276.375 9.582031 276.375 L 32.0625 276.375 L 37.5 302.722656 C 38.105469 305.6875 40.988281 307.59375 43.9375 306.988281 L 191.867188 276.375 L 338.464844 276.375 C 341.488281 276.375 343.941406 273.914062 343.941406 270.890625 L 343.941406 244.90625 L 366.019531 240.339844 C 368.976562 239.734375 370.890625 236.84375 370.285156 233.882812 Z M 327.421875 80.148438 L 331.660156 100.699219 L 228.089844 100.699219 Z M 47.097656 295.167969 L 43.222656 276.375 L 137.910156 276.375 Z M 332.988281 265.40625 L 15.066406 265.40625 L 15.066406 111.679688 L 332.988281 111.679688 Z M 343.949219 233.734375 L 343.949219 160.261719 L 358.484375 230.726562 Z M 343.949219 233.734375 " fill-opacity="1" fill-rule="nonzero"/></g><path fill="#a658b7" d="M 37.746094 164.433594 C 40.769531 164.433594 43.222656 161.976562 43.222656 158.949219 L 43.222656 138.386719 L 63.753906 138.386719 C 66.777344 138.386719 69.230469 135.929688 69.230469 132.902344 C 69.230469 129.875 66.777344 127.417969 63.753906 127.417969 L 37.746094 127.417969 C 34.726562 127.417969 32.273438 129.875 32.273438 132.902344 L 32.273438 158.949219 C 32.261719 161.976562 34.71875 164.433594 37.746094 164.433594 Z M 37.746094 164.433594 " fill-opacity="1" fill-rule="nonzero"/><path fill="#a658b7" d="M 63.753906 238.6875 L 43.222656 238.6875 L 43.222656 218.125 C 43.222656 215.097656 40.769531 212.640625 37.746094 212.640625 C 34.726562 212.640625 32.273438 215.097656 32.273438 218.125 L 32.273438 244.171875 C 32.273438 247.199219 34.726562 249.65625 37.746094 249.65625 L 63.753906 249.65625 C 66.777344 249.65625 69.230469 247.199219 69.230469 244.171875 C 69.230469 241.144531 66.777344 238.6875 63.753906 238.6875 Z M 63.753906 238.6875 " fill-opacity="1" fill-rule="nonzero"/><path fill="#a658b7" d="M 284.289062 138.386719 L 304.820312 138.386719 L 304.820312 158.949219 C 304.820312 161.976562 307.273438 164.433594 310.296875 164.433594 C 313.320312 164.433594 315.773438 161.976562 315.773438 158.949219 L 315.773438 132.902344 C 315.773438 129.875 313.320312 127.417969 310.296875 127.417969 L 284.289062 127.417969 C 281.269531 127.417969 278.8125 129.875 278.8125 132.902344 C 278.8125 135.929688 281.269531 138.386719 284.289062 138.386719 Z M 284.289062 138.386719 " fill-opacity="1" fill-rule="nonzero"/><path fill="#a658b7" d="M 284.289062 249.667969 L 310.296875 249.667969 C 313.320312 249.667969 315.773438 247.207031 315.773438 244.179688 L 315.773438 218.132812 C 315.773438 215.109375 313.320312 212.648438 310.296875 212.648438 C 307.273438 212.648438 304.820312 215.109375 304.820312 218.132812 L 304.820312 238.695312 L 284.289062 238.695312 C 281.269531 238.695312 278.8125 241.15625 278.8125 244.179688 C 278.8125 247.207031 281.269531 249.667969 284.289062 249.667969 Z M 284.289062 249.667969 " fill-opacity="1" fill-rule="nonzero"/></svg>