<svg xmlns="http://www.w3.org/2000/svg" xmlns:xlink="http://www.w3.org/1999/xlink" width="500" zoomAndPan="magnify" viewBox="0 0 375 374.999991" height="500" preserveAspectRatio="xMidYMid meet" version="1.0"><defs><clipPath id="b858dca288"><path d="M 23.539062 23.539062 L 351.289062 23.539062 L 351.289062 351.289062 L 23.539062 351.289062 Z M 23.539062 23.539062 " clip-rule="nonzero"/></clipPath></defs><rect x="-37.5" width="450" fill="#ffffff" y="-37.499999" height="449.999989" fill-opacity="1"/><rect x="-37.5" width="450" fill="#ffffff" y="-37.499999" height="449.999989" fill-opacity="1"/><rect x="-37.5" width="450" fill="#ffffff" y="-37.499999" height="449.999989" fill-opacity="1"/><g clip-path="url(#b858dca288)"><path fill="#a658b7" d="M 187.441406 351.316406 C 97.0625 351.316406 23.539062 277.800781 23.539062 187.441406 C 23.539062 97.0625 97.0625 23.539062 187.441406 23.539062 C 277.808594 23.539062 351.320312 97.0625 351.320312 187.441406 C 351.320312 277.800781 277.808594 351.316406 187.441406 351.316406 Z M 187.441406 39.765625 C 106.011719 39.765625 39.765625 106.011719 39.765625 187.441406 C 39.765625 268.855469 106.011719 335.089844 187.441406 335.089844 C 268.859375 335.089844 335.097656 268.855469 335.097656 187.441406 C 335.097656 106.011719 268.859375 39.765625 187.441406 39.765625 Z M 187.441406 39.765625 " fill-opacity="1" fill-rule="nonzero"/></g><path fill="#a658b7" d="M 277.125 109.785156 C 230.75 158.058594 184.375 206.335938 138 254.613281 C 141.585938 254.613281 145.171875 254.613281 148.757812 254.613281 C 131.75 238.878906 114.738281 223.140625 97.726562 207.40625 C 90.539062 200.753906 79.753906 211.488281 86.972656 218.164062 C 103.980469 233.898438 120.992188 249.636719 138 265.371094 C 140.996094 268.136719 145.804688 268.445312 148.757812 265.371094 C 195.132812 217.09375 241.507812 168.820312 287.882812 120.542969 C 294.675781 113.472656 283.929688 102.699219 277.125 109.785156 Z M 277.125 109.785156 " fill-opacity="1" fill-rule="nonzero"/></svg>