<svg xmlns="http://www.w3.org/2000/svg" xmlns:xlink="http://www.w3.org/1999/xlink" width="500" zoomAndPan="magnify" viewBox="0 0 375 374.999991" height="500" preserveAspectRatio="xMidYMid meet" version="1.0"><defs><clipPath id="7b79f2a7eb"><path d="M 0 53.671875 L 375 53.671875 L 375 321.421875 L 0 321.421875 Z M 0 53.671875 " clip-rule="nonzero"/></clipPath></defs><rect x="-37.5" width="450" fill="#ffffff" y="-37.499999" height="449.999989" fill-opacity="1"/><rect x="-37.5" width="450" fill="#ffffff" y="-37.499999" height="449.999989" fill-opacity="1"/><g clip-path="url(#7b79f2a7eb)"><path fill="#a658b7" d="M 40.289062 53.671875 C 18.117188 53.671875 0.140625 71.625 0.140625 93.835938 C 0.636719 154.734375 0.140625 219.195312 0.140625 281.257812 C 0.140625 302.632812 16.761719 319.933594 37.78125 321.214844 L 336.382812 321.421875 C 357.792969 320.558594 374.859375 302.914062 374.859375 281.257812 L 374.859375 86.933594 C 371.609375 68 355.179688 53.671875 335.339844 53.671875 C 237.042969 53.71875 138.625 53.675781 40.289062 53.671875 Z M 39.660156 74.796875 L 336.59375 74.796875 L 192.933594 218.507812 C 190.3125 221.128906 186.148438 221.128906 183.527344 218.507812 Z M 354.785156 85.046875 L 354.785156 279.796875 C 354.785156 291.398438 350.609375 297.953125 342.242188 300.296875 L 241.03125 198.84375 L 354.785156 85.050781 Z M 22.519531 85.886719 L 134.390625 197.796875 L 32.140625 300.085938 C 25.140625 297.722656 22.703125 292.082031 22.523438 284.394531 L 22.523438 85.886719 Z M 148.609375 211.808594 L 183.53125 246.949219 C 186.152344 249.570312 190.320312 249.570312 192.941406 246.949219 L 226.816406 213.0625 L 315.0625 301.339844 L 59.117188 301.339844 L 148.613281 211.8125 Z M 148.609375 211.808594 " fill-opacity="1" fill-rule="nonzero"/></g></svg>