<svg xmlns="http://www.w3.org/2000/svg" xmlns:xlink="http://www.w3.org/1999/xlink" width="500" zoomAndPan="magnify" viewBox="0 0 375 374.999991" height="500" preserveAspectRatio="xMidYMid meet" version="1.0"><defs><clipPath id="c3b58a5165"><path d="M 60.246094 30 L 342 30 L 342 345.964844 L 60.246094 345.964844 Z M 60.246094 30 " clip-rule="nonzero"/></clipPath></defs><rect x="-37.5" width="450" fill="#ffffff" y="-37.499999" height="449.999989" fill-opacity="1"/><rect x="-37.5" width="450" fill="#ffffff" y="-37.499999" height="449.999989" fill-opacity="1"/><rect x="-37.5" width="450" fill="#ffffff" y="-37.499999" height="449.999989" fill-opacity="1"/><g clip-path="url(#c3b58a5165)"><path fill="#a658b7" d="M 125.722656 75.503906 C 125.75 74.015625 125.847656 72.535156 126.019531 71.054688 C 126.191406 69.578125 126.4375 68.113281 126.753906 66.660156 C 127.070312 65.207031 127.457031 63.773438 127.914062 62.355469 C 128.371094 60.941406 128.894531 59.550781 129.488281 58.1875 C 130.082031 56.824219 130.742188 55.492188 131.464844 54.195312 C 132.191406 52.894531 132.976562 51.632812 133.824219 50.414062 C 134.671875 49.191406 135.578125 48.011719 136.542969 46.878906 C 137.507812 45.746094 138.523438 44.664062 139.59375 43.632812 C 140.664062 42.601562 141.785156 41.621094 142.949219 40.699219 C 144.117188 39.777344 145.324219 38.914062 146.578125 38.109375 C 147.828125 37.304688 149.117188 36.566406 150.441406 35.886719 C 151.765625 35.210938 153.117188 34.597656 154.503906 34.054688 C 155.886719 33.511719 157.296875 33.035156 158.726562 32.628906 C 160.15625 32.222656 161.605469 31.890625 163.066406 31.625 C 164.53125 31.359375 166.003906 31.171875 167.488281 31.050781 C 168.96875 30.933594 170.457031 30.886719 171.941406 30.914062 C 173.429688 30.941406 174.910156 31.039062 176.390625 31.214844 C 177.867188 31.386719 179.332031 31.628906 180.785156 31.945312 C 182.238281 32.265625 183.671875 32.652344 185.089844 33.109375 C 186.503906 33.566406 187.890625 34.09375 189.257812 34.6875 C 190.621094 35.28125 191.949219 35.941406 193.25 36.664062 C 194.546875 37.390625 195.808594 38.179688 197.03125 39.027344 C 198.25 39.875 199.425781 40.78125 200.558594 41.746094 C 201.691406 42.710938 202.773438 43.730469 203.804688 44.800781 C 204.839844 45.871094 205.816406 46.992188 206.738281 48.15625 C 207.660156 49.324219 208.523438 50.535156 209.328125 51.785156 C 210.128906 53.039062 210.871094 54.324219 211.546875 55.648438 C 212.222656 56.976562 212.832031 58.328125 213.375 59.714844 C 213.921875 61.097656 214.394531 62.507812 214.800781 63.9375 C 215.207031 65.367188 215.539062 66.816406 215.800781 68.28125 C 216.066406 69.742188 216.257812 71.21875 216.375 72.699219 C 216.492188 74.183594 216.539062 75.667969 216.511719 77.15625 C 216.453125 78.621094 216.324219 80.082031 216.125 81.535156 C 215.925781 82.988281 215.65625 84.429688 215.320312 85.855469 C 214.980469 87.285156 214.574219 88.691406 214.097656 90.078125 C 213.621094 91.46875 213.082031 92.828125 212.476562 94.164062 C 211.867188 95.5 211.195312 96.804688 210.464844 98.074219 C 209.730469 99.34375 208.9375 100.578125 208.085938 101.769531 C 207.230469 102.964844 206.324219 104.113281 205.359375 105.21875 C 204.394531 106.328125 203.378906 107.382812 202.3125 108.390625 C 201.246094 109.398438 200.132812 110.351562 198.972656 111.25 C 197.8125 112.148438 196.613281 112.992188 195.371094 113.773438 C 194.132812 114.558594 192.855469 115.277344 191.546875 115.9375 C 190.234375 116.597656 188.894531 117.191406 187.527344 117.722656 C 186.160156 118.25 184.769531 118.710938 183.355469 119.105469 C 181.941406 119.503906 180.511719 119.828125 179.070312 120.082031 C 177.625 120.339844 176.171875 120.527344 174.707031 120.640625 C 173.246094 120.757812 171.78125 120.800781 170.3125 120.773438 C 168.847656 120.746094 167.382812 120.648438 165.925781 120.480469 C 164.46875 120.3125 163.023438 120.074219 161.589844 119.765625 C 160.152344 119.457031 158.738281 119.078125 157.339844 118.632812 C 155.941406 118.1875 154.570312 117.675781 153.222656 117.097656 C 151.875 116.519531 150.554688 115.875 149.269531 115.167969 C 147.984375 114.460938 146.734375 113.695312 145.523438 112.867188 C 144.3125 112.039062 143.144531 111.15625 142.019531 110.214844 C 140.894531 109.273438 139.816406 108.28125 138.785156 107.234375 C 137.757812 106.1875 136.78125 105.097656 135.855469 103.957031 C 134.933594 102.816406 134.066406 101.632812 133.257812 100.410156 C 132.449219 99.1875 131.703125 97.925781 131.015625 96.628906 C 130.328125 95.332031 129.707031 94.007812 129.148438 92.648438 C 128.589844 91.292969 128.097656 89.910156 127.671875 88.507812 C 127.25 87.101562 126.894531 85.679688 126.605469 84.242188 C 126.320312 82.804688 126.105469 81.355469 125.957031 79.894531 C 125.8125 78.433594 125.738281 76.96875 125.734375 75.503906 Z M 338.246094 133.847656 C 337.914062 133.332031 337.527344 132.867188 337.078125 132.449219 C 336.628906 132.03125 336.136719 131.675781 335.601562 131.382812 C 335.0625 131.085938 334.496094 130.867188 333.902344 130.714844 C 333.308594 130.566406 332.703125 130.492188 332.089844 130.496094 L 289.808594 130.496094 C 289.316406 130.496094 288.828125 130.542969 288.34375 130.640625 C 287.859375 130.738281 287.390625 130.878906 286.933594 131.066406 C 286.480469 131.257812 286.046875 131.488281 285.636719 131.761719 C 285.226562 132.035156 284.847656 132.347656 284.5 132.695312 C 284.152344 133.042969 283.839844 133.421875 283.566406 133.832031 C 283.292969 134.242188 283.0625 134.675781 282.871094 135.128906 C 282.683594 135.585938 282.542969 136.054688 282.445312 136.539062 C 282.351562 137.019531 282.300781 137.507812 282.300781 138.003906 C 282.300781 138.496094 282.351562 138.984375 282.445312 139.464844 C 282.542969 139.949219 282.683594 140.417969 282.871094 140.875 C 283.0625 141.332031 283.292969 141.761719 283.566406 142.171875 C 283.839844 142.582031 284.152344 142.960938 284.5 143.308594 C 284.847656 143.660156 285.226562 143.96875 285.636719 144.242188 C 286.046875 144.515625 286.480469 144.75 286.933594 144.9375 C 287.390625 145.125 287.859375 145.269531 288.34375 145.363281 C 288.828125 145.460938 289.316406 145.507812 289.808594 145.507812 L 318.328125 145.507812 C 294.460938 169.378906 270.625 193.230469 246.824219 217.066406 L 246.824219 196.148438 L 246.722656 196.25 L 246.722656 181.1875 C 246.710938 179.714844 246.625 178.25 246.46875 176.785156 C 246.316406 175.324219 246.089844 173.871094 245.792969 172.429688 C 245.496094 170.988281 245.132812 169.566406 244.699219 168.160156 C 244.261719 166.757812 243.761719 165.375 243.195312 164.019531 C 242.625 162.660156 241.992188 161.335938 241.296875 160.039062 C 240.597656 158.746094 239.839844 157.488281 239.023438 156.265625 C 238.203125 155.042969 237.328125 153.863281 236.394531 152.726562 C 235.460938 151.589844 234.476562 150.5 233.4375 149.460938 C 232.398438 148.417969 231.308594 147.429688 230.175781 146.492188 C 229.039062 145.558594 227.863281 144.679688 226.644531 143.859375 C 225.421875 143.035156 224.164062 142.273438 222.871094 141.574219 C 221.578125 140.875 220.253906 140.238281 218.898438 139.667969 C 217.542969 139.097656 216.164062 138.59375 214.757812 138.15625 C 213.355469 137.71875 211.933594 137.351562 210.492188 137.050781 C 209.050781 136.75 207.601562 136.523438 206.136719 136.363281 C 204.675781 136.203125 203.210938 136.117188 201.738281 136.101562 C 181.222656 136.050781 160.707031 136.066406 140.191406 136.152344 C 138.90625 136.160156 137.628906 136.226562 136.351562 136.347656 C 135.078125 136.46875 133.808594 136.644531 132.546875 136.875 C 131.285156 137.101562 130.039062 137.386719 128.800781 137.722656 C 127.5625 138.058594 126.34375 138.449219 125.140625 138.890625 C 123.9375 139.332031 122.753906 139.820312 121.59375 140.363281 C 120.433594 140.90625 119.296875 141.5 118.1875 142.136719 C 117.074219 142.777344 115.996094 143.464844 114.941406 144.199219 C 113.890625 144.929688 112.875 145.707031 111.886719 146.527344 C 110.902344 147.347656 109.957031 148.207031 109.042969 149.109375 C 108.132812 150.011719 107.261719 150.949219 106.429688 151.925781 C 105.601562 152.902344 104.8125 153.910156 104.070312 154.957031 C 103.324219 156 102.628906 157.074219 101.976562 158.175781 C 101.324219 159.28125 100.71875 160.410156 100.164062 161.5625 C 99.609375 162.71875 99.105469 163.894531 98.652344 165.09375 C 98.195312 166.292969 97.792969 167.507812 97.445312 168.742188 C 97.09375 169.976562 96.796875 171.222656 96.554688 172.480469 C 95.75 179.460938 95.402344 186.46875 95.503906 193.496094 C 95.453125 194.246094 95.503906 195.046875 95.503906 196.097656 C 95.375 196.019531 95.242188 195.953125 95.105469 195.898438 L 95.105469 221.96875 C 95.347656 223.242188 95.464844 224.527344 95.453125 225.820312 C 95.503906 230.226562 95.503906 269.804688 95.503906 286.019531 L 95.105469 286.019531 L 95.105469 300.378906 L 63.078125 332.40625 C 62.730469 332.753906 62.421875 333.136719 62.148438 333.546875 C 61.875 333.957031 61.644531 334.390625 61.457031 334.847656 C 61.269531 335.304688 61.128906 335.777344 61.035156 336.257812 C 60.9375 336.742188 60.890625 337.234375 60.894531 337.726562 C 60.894531 338.21875 60.945312 338.707031 61.042969 339.191406 C 61.140625 339.675781 61.28125 340.144531 61.472656 340.601562 C 61.664062 341.054688 61.894531 341.488281 62.171875 341.898438 C 62.445312 342.308594 62.757812 342.6875 63.109375 343.035156 C 63.457031 343.382812 63.835938 343.695312 64.25 343.96875 C 64.660156 344.242188 65.09375 344.472656 65.550781 344.660156 C 66.007812 344.847656 66.476562 344.988281 66.960938 345.082031 C 67.445312 345.179688 67.933594 345.226562 68.425781 345.226562 C 68.921875 345.222656 69.410156 345.175781 69.894531 345.078125 C 70.375 344.980469 70.847656 344.835938 71.300781 344.648438 C 71.757812 344.457031 72.191406 344.226562 72.601562 343.949219 C 73.011719 343.675781 73.390625 343.363281 73.738281 343.015625 L 115.714844 301.03125 L 172.066406 244.6875 L 197.683594 270.304688 C 198.320312 270.9375 199.054688 271.421875 199.886719 271.757812 C 200.019531 272.011719 200.164062 272.257812 200.324219 272.496094 C 200.484375 272.734375 200.660156 272.960938 200.847656 273.175781 C 201.03125 273.394531 201.230469 273.597656 201.445312 273.792969 C 201.65625 273.984375 201.878906 274.167969 202.109375 274.332031 C 202.34375 274.5 202.582031 274.652344 202.835938 274.792969 C 203.085938 274.933594 203.34375 275.054688 203.609375 275.164062 C 203.871094 275.273438 204.144531 275.363281 204.417969 275.441406 C 204.695312 275.519531 204.976562 275.578125 205.257812 275.621094 C 205.542969 275.667969 205.828125 275.691406 206.113281 275.703125 C 206.398438 275.714844 206.683594 275.707031 206.96875 275.683594 C 207.253906 275.660156 207.539062 275.621094 207.820312 275.5625 C 208.101562 275.507812 208.378906 275.433594 208.648438 275.34375 C 208.921875 275.253906 209.1875 275.148438 209.449219 275.027344 C 209.707031 274.910156 209.960938 274.773438 210.203125 274.621094 C 210.445312 274.472656 210.679688 274.308594 210.90625 274.128906 C 211.128906 273.953125 211.34375 273.761719 211.546875 273.558594 L 231.511719 253.59375 C 236.566406 248.488281 241.636719 243.417969 246.722656 238.382812 C 273.410156 211.660156 300.097656 184.972656 326.785156 158.320312 L 326.785156 186.839844 C 326.785156 187.332031 326.835938 187.820312 326.929688 188.304688 C 327.027344 188.789062 327.167969 189.257812 327.359375 189.714844 C 327.546875 190.167969 327.777344 190.601562 328.050781 191.011719 C 328.324219 191.421875 328.636719 191.800781 328.984375 192.148438 C 329.332031 192.496094 329.710938 192.808594 330.121094 193.082031 C 330.53125 193.355469 330.964844 193.585938 331.421875 193.777344 C 331.875 193.964844 332.34375 194.105469 332.828125 194.203125 C 333.3125 194.296875 333.800781 194.347656 334.292969 194.347656 C 334.785156 194.347656 335.273438 194.296875 335.757812 194.203125 C 336.242188 194.105469 336.710938 193.964844 337.164062 193.777344 C 337.621094 193.585938 338.054688 193.355469 338.460938 193.082031 C 338.871094 192.808594 339.25 192.496094 339.601562 192.148438 C 339.949219 191.800781 340.257812 191.421875 340.535156 191.011719 C 340.808594 190.601562 341.039062 190.167969 341.226562 189.714844 C 341.414062 189.257812 341.558594 188.789062 341.65625 188.304688 C 341.75 187.820312 341.796875 187.332031 341.796875 186.839844 L 341.796875 140.203125 C 341.785156 139.570312 341.695312 138.945312 341.527344 138.332031 C 341.363281 137.722656 341.125 137.136719 340.8125 136.582031 C 340.503906 136.03125 340.132812 135.523438 339.699219 135.058594 C 339.261719 134.597656 338.777344 134.191406 338.246094 133.847656 Z M 338.246094 133.847656 " fill-opacity="1" fill-rule="nonzero"/></g></svg>