<svg xmlns="http://www.w3.org/2000/svg" xmlns:xlink="http://www.w3.org/1999/xlink" width="500" zoomAndPan="magnify" viewBox="0 0 375 374.999991" height="500" preserveAspectRatio="xMidYMid meet" version="1.0"><defs><clipPath id="f519791ecf"><path d="M 3.214844 46 L 371.464844 46 L 371.464844 337.742188 L 3.214844 337.742188 Z M 3.214844 46 " clip-rule="nonzero"/></clipPath><clipPath id="95ba3d0467"><path d="M 313 98 L 371.464844 98 L 371.464844 111 L 313 111 Z M 313 98 " clip-rule="nonzero"/></clipPath><clipPath id="e4d8da55c2"><path d="M 3.214844 98 L 264 98 L 264 111 L 3.214844 111 Z M 3.214844 98 " clip-rule="nonzero"/></clipPath><clipPath id="15306e51e4"><path d="M 178 24.242188 L 194 24.242188 L 194 78 L 178 78 Z M 178 24.242188 " clip-rule="nonzero"/></clipPath><clipPath id="1955c9940d"><path d="M 33 24.242188 L 50 24.242188 L 50 78 L 33 78 Z M 33 24.242188 " clip-rule="nonzero"/></clipPath><clipPath id="9e7b7d4edc"><path d="M 79 24.242188 L 96 24.242188 L 96 78 L 79 78 Z M 79 24.242188 " clip-rule="nonzero"/></clipPath><clipPath id="99456a5cf4"><path d="M 126 24.242188 L 142 24.242188 L 142 78 L 126 78 Z M 126 24.242188 " clip-rule="nonzero"/></clipPath><clipPath id="06cdacc571"><path d="M 229 24.242188 L 245 24.242188 L 245 78 L 229 78 Z M 229 24.242188 " clip-rule="nonzero"/></clipPath><clipPath id="008cb9da19"><path d="M 274 24.242188 L 291 24.242188 L 291 78 L 274 78 Z M 274 24.242188 " clip-rule="nonzero"/></clipPath><clipPath id="ce9606ced9"><path d="M 321 24.242188 L 338 24.242188 L 338 78 L 321 78 Z M 321 24.242188 " clip-rule="nonzero"/></clipPath></defs><rect x="-37.5" width="450" fill="#ffffff" y="-37.499999" height="449.999989" fill-opacity="1"/><rect x="-37.5" width="450" fill="#ffffff" y="-37.499999" height="449.999989" fill-opacity="1"/><rect x="-37.5" width="450" fill="#ffffff" y="-37.499999" height="449.999989" fill-opacity="1"/><g clip-path="url(#f519791ecf)"><path fill="#a658b7" d="M 359.695312 308.023438 C 359.460938 318.476562 351.1875 325.695312 341.019531 325.695312 L 34.082031 325.695312 C 24.886719 325.695312 16.371094 319.859375 15.28125 310.171875 C 14.925781 307 15.183594 303.65625 15.183594 300.472656 L 15.183594 82.933594 C 15.183594 79.46875 14.863281 75.699219 15.5625 72.289062 C 17.417969 63.1875 25.570312 58.308594 34.3125 58.308594 L 341.210938 58.308594 C 351.15625 58.308594 359.695312 65.679688 359.695312 75.992188 L 359.695312 308.027344 C 359.695312 315.628906 371.457031 315.628906 371.457031 308.027344 L 371.457031 82.371094 C 371.457031 77.894531 371.566406 73.589844 370.65625 69.160156 C 367.902344 55.679688 354.847656 46.527344 341.542969 46.527344 L 47.519531 46.527344 C 34.417969 46.527344 21.445312 45.320312 11.335938 55.878906 C 1.199219 66.476562 3.417969 82.414062 3.417969 95.867188 C 3.417969 142.722656 3.417969 189.585938 3.417969 236.445312 L 3.417969 307.351562 C 3.417969 321.214844 12.507812 333.289062 26.011719 336.6875 C 29.835938 337.648438 33.796875 337.484375 37.695312 337.484375 L 319.4375 337.484375 C 327.636719 337.484375 335.996094 337.945312 344.191406 337.386719 C 359.59375 336.34375 371.117188 323.203125 371.457031 308.027344 C 371.628906 300.433594 359.867188 300.449219 359.695312 308.027344 " fill-opacity="1" fill-rule="nonzero"/></g><g clip-path="url(#95ba3d0467)"><path fill="#a658b7" d="M 318.703125 110.382812 L 365.578125 110.382812 C 373.167969 110.382812 373.167969 98.601562 365.578125 98.601562 L 318.703125 98.601562 C 311.117188 98.601562 311.117188 110.382812 318.703125 110.382812 " fill-opacity="1" fill-rule="nonzero"/></g><path fill="#a658b7" d="M 278.640625 110.382812 L 299.097656 110.382812 C 306.679688 110.382812 306.679688 98.601562 299.097656 98.601562 L 278.640625 98.601562 C 271.058594 98.601562 271.058594 110.382812 278.640625 110.382812 " fill-opacity="1" fill-rule="nonzero"/><g clip-path="url(#e4d8da55c2)"><path fill="#a658b7" d="M 9.304688 110.382812 L 258.191406 110.382812 C 265.773438 110.382812 265.773438 98.601562 258.191406 98.601562 L 9.304688 98.601562 C 1.71875 98.601562 1.71875 110.382812 9.304688 110.382812 " fill-opacity="1" fill-rule="nonzero"/></g><path fill="#a658b7" d="M 244.316406 166.691406 L 163.054688 248.085938 C 161.519531 249.625 159.992188 251.15625 158.445312 252.695312 C 159.160156 251.988281 161.363281 252.996094 160.8125 252.4375 C 159.378906 251 157.945312 249.5625 156.5 248.125 C 148.371094 239.972656 140.230469 231.828125 132.097656 223.675781 C 123.152344 214.710938 109.289062 228.597656 118.234375 237.558594 C 124.960938 244.300781 131.691406 251.039062 138.417969 257.769531 C 141.296875 260.660156 144.183594 263.550781 147.066406 266.441406 C 153.953125 273.335938 165.324219 273.582031 172.277344 266.613281 C 184.109375 254.769531 195.945312 242.917969 207.777344 231.066406 C 224.574219 214.234375 241.378906 197.402344 258.179688 180.578125 C 267.128906 171.617188 253.265625 157.730469 244.316406 166.691406 " fill-opacity="1" fill-rule="nonzero"/><g clip-path="url(#15306e51e4)"><path fill="#a658b7" d="M 178.167969 31.925781 L 178.167969 70.347656 C 178.167969 80.472656 193.851562 80.472656 193.851562 70.347656 L 193.851562 31.925781 C 193.851562 21.796875 178.167969 21.796875 178.167969 31.925781 " fill-opacity="1" fill-rule="nonzero"/></g><g clip-path="url(#1955c9940d)"><path fill="#a658b7" d="M 33.851562 31.925781 L 33.851562 70.347656 C 33.851562 80.472656 49.53125 80.472656 49.53125 70.347656 L 49.53125 31.925781 C 49.53125 21.796875 33.851562 21.796875 33.851562 31.925781 " fill-opacity="1" fill-rule="nonzero"/></g><g clip-path="url(#9e7b7d4edc)"><path fill="#a658b7" d="M 79.675781 31.925781 L 79.675781 70.347656 C 79.675781 80.472656 95.355469 80.472656 95.355469 70.347656 L 95.355469 31.925781 C 95.355469 21.796875 79.675781 21.796875 79.675781 31.925781 " fill-opacity="1" fill-rule="nonzero"/></g><g clip-path="url(#99456a5cf4)"><path fill="#a658b7" d="M 126.28125 31.925781 L 126.28125 70.347656 C 126.28125 80.472656 141.964844 80.472656 141.964844 70.347656 L 141.964844 31.925781 C 141.964844 21.796875 126.28125 21.796875 126.28125 31.925781 " fill-opacity="1" fill-rule="nonzero"/></g><g clip-path="url(#06cdacc571)"><path fill="#a658b7" d="M 229.175781 31.925781 L 229.175781 70.347656 C 229.175781 80.472656 244.859375 80.472656 244.859375 70.347656 L 244.859375 31.925781 C 244.859375 21.796875 229.175781 21.796875 229.175781 31.925781 " fill-opacity="1" fill-rule="nonzero"/></g><g clip-path="url(#008cb9da19)"><path fill="#a658b7" d="M 274.992188 31.925781 L 274.992188 70.347656 C 274.992188 80.472656 290.675781 80.472656 290.675781 70.347656 L 290.675781 31.925781 C 290.675781 21.796875 274.992188 21.796875 274.992188 31.925781 " fill-opacity="1" fill-rule="nonzero"/></g><g clip-path="url(#ce9606ced9)"><path fill="#a658b7" d="M 321.59375 31.925781 L 321.59375 70.347656 C 321.59375 80.472656 337.277344 80.472656 337.277344 70.347656 L 337.277344 31.925781 C 337.277344 21.796875 321.59375 21.796875 321.59375 31.925781 " fill-opacity="1" fill-rule="nonzero"/></g></svg>