<svg xmlns="http://www.w3.org/2000/svg" xmlns:xlink="http://www.w3.org/1999/xlink" width="500" zoomAndPan="magnify" viewBox="0 0 375 374.999991" height="500" preserveAspectRatio="xMidYMid meet" version="1.0"><defs><clipPath id="2e2348448b"><path d="M 0 25.566406 L 375 25.566406 L 375 283 L 0 283 Z M 0 25.566406 " clip-rule="nonzero"/></clipPath></defs><g clip-path="url(#2e2348448b)"><path fill="#a658b7" d="M 324.554688 282.835938 L 50.476562 282.835938 C 22.929688 282.835938 0.519531 258.910156 0.519531 229.5 L 0.519531 78.902344 C 0.519531 49.496094 22.929688 25.566406 50.476562 25.566406 L 324.554688 25.566406 C 352.101562 25.566406 374.511719 49.496094 374.511719 78.902344 L 374.511719 229.5 C 374.511719 258.910156 352.101562 282.835938 324.554688 282.835938 Z M 50.476562 41.871094 C 31.917969 41.871094 16.816406 58.480469 16.816406 78.902344 L 16.816406 229.5 C 16.816406 249.921875 31.917969 266.535156 50.476562 266.535156 L 324.554688 266.535156 C 343.117188 266.535156 358.21875 249.921875 358.21875 229.5 L 358.21875 78.902344 C 358.21875 58.480469 343.117188 41.871094 324.554688 41.871094 Z M 50.476562 41.871094 " fill-opacity="1" fill-rule="nonzero"/></g><path fill="#a658b7" d="M 328.472656 234.527344 C 233.894531 234.527344 139.316406 234.527344 44.742188 234.527344 C 46.648438 236.4375 48.558594 238.347656 50.46875 240.257812 C 50.46875 183.214844 50.46875 126.167969 50.46875 69.125 C 48.558594 71.035156 46.648438 72.945312 44.742188 74.855469 C 139.316406 74.855469 233.894531 74.855469 328.472656 74.855469 C 326.566406 72.945312 324.65625 71.035156 322.746094 69.125 C 322.746094 126.167969 322.746094 183.214844 322.746094 240.257812 C 322.746094 247.652344 334.203125 247.652344 334.203125 240.257812 C 334.203125 183.214844 334.203125 126.167969 334.203125 69.125 C 334.203125 66 331.597656 63.394531 328.476562 63.394531 C 233.898438 63.394531 139.320312 63.394531 44.742188 63.394531 C 41.621094 63.394531 39.015625 66 39.015625 69.125 C 39.015625 126.167969 39.015625 183.214844 39.015625 240.257812 C 39.015625 243.382812 41.621094 245.988281 44.742188 245.988281 C 139.320312 245.988281 233.898438 245.988281 328.476562 245.988281 C 335.863281 245.988281 335.863281 234.527344 328.472656 234.527344 Z M 328.472656 234.527344 " fill-opacity="1" fill-rule="nonzero"/><path fill="#a658b7" d="M 171.53125 311.1875 C 171.53125 299.585938 171.53125 287.980469 171.53125 276.378906 C 171.53125 266.523438 156.253906 266.523438 156.253906 276.378906 C 156.253906 287.980469 156.253906 299.585938 156.253906 311.1875 C 156.253906 321.042969 171.53125 321.042969 171.53125 311.1875 Z M 171.53125 311.1875 " fill-opacity="1" fill-rule="nonzero"/><path fill="#a658b7" d="M 201.53125 276.378906 C 201.53125 287.980469 201.53125 299.585938 201.53125 311.1875 C 201.53125 321.042969 216.808594 321.042969 216.808594 311.1875 C 216.808594 299.585938 216.808594 287.980469 216.808594 276.378906 C 216.808594 266.523438 201.53125 266.523438 201.53125 276.378906 Z M 201.53125 276.378906 " fill-opacity="1" fill-rule="nonzero"/><path fill="#a658b7" d="M 283.777344 336.410156 C 219.472656 336.410156 155.167969 336.410156 90.859375 336.410156 C 92.769531 338.320312 94.679688 340.230469 96.589844 342.140625 C 96.589844 334.136719 96.589844 326.136719 96.589844 318.132812 C 94.679688 320.042969 92.769531 321.953125 90.859375 323.859375 C 155.167969 323.859375 219.472656 323.859375 283.777344 323.859375 C 281.867188 321.953125 279.957031 320.042969 278.050781 318.132812 C 278.050781 326.136719 278.050781 334.136719 278.050781 342.140625 C 278.050781 349.535156 289.507812 349.535156 289.507812 342.140625 C 289.507812 334.136719 289.507812 326.136719 289.507812 318.132812 C 289.507812 315.007812 286.902344 312.402344 283.777344 312.402344 C 219.476562 312.402344 155.167969 312.402344 90.863281 312.402344 C 87.738281 312.402344 85.132812 315.007812 85.132812 318.132812 C 85.132812 326.136719 85.132812 334.136719 85.132812 342.140625 C 85.132812 345.265625 87.738281 347.871094 90.863281 347.871094 C 155.167969 347.871094 219.476562 347.871094 283.777344 347.871094 C 291.167969 347.875 291.167969 336.410156 283.777344 336.410156 Z M 283.777344 336.410156 " fill-opacity="1" fill-rule="nonzero"/><path fill="#a658b7" d="M 51.253906 122.878906 C 142.917969 122.878906 234.582031 122.878906 326.246094 122.878906 C 336.097656 122.878906 336.097656 107.59375 326.246094 107.59375 C 234.582031 107.59375 142.917969 107.59375 51.253906 107.59375 C 41.398438 107.59375 41.398438 122.878906 51.253906 122.878906 Z M 51.253906 122.878906 " fill-opacity="1" fill-rule="nonzero"/><path fill="#a658b7" d="M 140.097656 195.050781 C 120.316406 195.050781 100.539062 195.050781 80.757812 195.050781 C 83.304688 197.601562 85.847656 200.144531 88.398438 202.695312 C 88.398438 183.023438 88.398438 163.351562 88.398438 143.683594 C 85.851562 146.230469 83.304688 148.777344 80.757812 151.324219 C 100.539062 151.324219 120.316406 151.324219 140.097656 151.324219 C 137.550781 148.777344 135.003906 146.230469 132.457031 143.683594 C 132.457031 163.351562 132.457031 183.023438 132.457031 202.695312 C 132.457031 212.550781 147.734375 212.550781 147.734375 202.695312 C 147.734375 183.023438 147.734375 163.351562 147.734375 143.683594 C 147.734375 139.515625 144.261719 136.039062 140.097656 136.039062 C 120.316406 136.039062 100.539062 136.039062 80.757812 136.039062 C 76.59375 136.039062 73.117188 139.515625 73.117188 143.683594 C 73.117188 163.351562 73.117188 183.023438 73.117188 202.695312 C 73.117188 206.859375 76.59375 210.335938 80.757812 210.335938 C 100.539062 210.335938 120.316406 210.335938 140.097656 210.335938 C 149.949219 210.335938 149.949219 195.050781 140.097656 195.050781 Z M 140.097656 195.050781 " fill-opacity="1" fill-rule="nonzero"/><path fill="#a658b7" d="M 169.359375 153.089844 C 211.46875 153.089844 253.578125 153.089844 295.691406 153.089844 C 305.542969 153.089844 305.542969 137.804688 295.691406 137.804688 C 253.578125 137.804688 211.46875 137.804688 169.359375 137.804688 C 159.503906 137.804688 159.503906 153.089844 169.359375 153.089844 Z M 169.359375 153.089844 " fill-opacity="1" fill-rule="nonzero"/><path fill="#a658b7" d="M 169.359375 178.535156 C 211.46875 178.535156 253.578125 178.535156 295.691406 178.535156 C 305.542969 178.535156 305.542969 163.25 295.691406 163.25 C 253.578125 163.25 211.46875 163.25 169.359375 163.25 C 159.503906 163.25 159.503906 178.535156 169.359375 178.535156 Z M 169.359375 178.535156 " fill-opacity="1" fill-rule="nonzero"/></svg>