<svg xmlns="http://www.w3.org/2000/svg" xmlns:xlink="http://www.w3.org/1999/xlink" width="500" zoomAndPan="magnify" viewBox="0 0 375 374.999991" height="500" preserveAspectRatio="xMidYMid meet" version="1.0"><defs><clipPath id="c7f8d6c118"><path d="M 231 37.5 L 302.925781 37.5 L 302.925781 110 L 231 110 Z M 231 37.5 " clip-rule="nonzero"/></clipPath><clipPath id="cae8ee23e8"><path d="M 182 37.5 L 193 37.5 L 193 279 L 182 279 Z M 182 37.5 " clip-rule="nonzero"/></clipPath><clipPath id="fef02c5e20"><path d="M 72 37.5 L 145 37.5 L 145 110 L 72 110 Z M 72 37.5 " clip-rule="nonzero"/></clipPath></defs><path fill="#a658b7" d="M 267.082031 339 C 264.109375 339 261.695312 336.589844 261.695312 333.648438 L 261.695312 103.722656 C 261.695312 100.75 264.109375 98.339844 267.082031 98.367188 C 270.03125 98.367188 272.445312 100.75 272.445312 103.722656 L 272.445312 333.648438 C 272.445312 336.589844 270.03125 338.972656 267.082031 339 " fill-opacity="1" fill-rule="nonzero"/><g clip-path="url(#c7f8d6c118)"><path fill="#a658b7" d="M 267.03125 48.234375 C 253.171875 48.234375 241.9375 59.449219 241.9375 73.285156 C 241.9375 87.125 253.171875 98.339844 267.03125 98.339844 C 280.890625 98.339844 292.121094 87.125 292.121094 73.285156 C 292.121094 59.476562 280.890625 48.261719 267.03125 48.234375 Z M 267.03125 109.101562 C 247.246094 109.101562 231.191406 93.066406 231.191406 73.285156 C 231.191406 53.535156 247.246094 37.5 267.03125 37.5 C 286.839844 37.5 302.898438 53.535156 302.898438 73.285156 C 302.898438 93.066406 286.839844 109.101562 267.03125 109.101562 " fill-opacity="1" fill-rule="nonzero"/></g><g clip-path="url(#cae8ee23e8)"><path fill="#a658b7" d="M 187.601562 278.160156 C 184.652344 278.132812 182.242188 275.75 182.242188 272.777344 L 182.242188 42.878906 C 182.242188 39.910156 184.652344 37.5 187.601562 37.5 C 190.578125 37.5 192.988281 39.910156 192.988281 42.878906 L 192.988281 272.777344 C 192.988281 275.75 190.578125 278.160156 187.601562 278.160156 " fill-opacity="1" fill-rule="nonzero"/></g><path fill="#a658b7" d="M 187.601562 278.160156 C 173.742188 278.160156 162.511719 289.375 162.511719 303.214844 C 162.511719 317.050781 173.742188 328.265625 187.601562 328.265625 C 201.460938 328.265625 212.691406 317.050781 212.691406 303.214844 C 212.691406 289.375 201.460938 278.160156 187.601562 278.160156 Z M 187.601562 339 C 167.820312 339 151.761719 322.964844 151.761719 303.214844 C 151.761719 283.433594 167.820312 267.398438 187.601562 267.398438 C 207.414062 267.398438 223.46875 283.433594 223.46875 303.214844 C 223.46875 322.964844 207.414062 339 187.601562 339 " fill-opacity="1" fill-rule="nonzero"/><path fill="#a658b7" d="M 108.199219 339 C 105.25 339 102.839844 336.589844 102.839844 333.648438 L 102.839844 103.722656 C 102.839844 100.75 105.226562 98.339844 108.199219 98.339844 C 111.175781 98.339844 113.589844 100.75 113.589844 103.695312 C 113.589844 103.722656 113.589844 103.722656 113.589844 103.722656 L 113.589844 333.648438 C 113.5625 336.589844 111.175781 338.972656 108.199219 339 " fill-opacity="1" fill-rule="nonzero"/><g clip-path="url(#fef02c5e20)"><path fill="#a658b7" d="M 108.171875 48.234375 C 94.316406 48.234375 83.082031 59.449219 83.082031 73.285156 C 83.082031 87.125 94.316406 98.339844 108.171875 98.339844 C 122.03125 98.339844 133.265625 87.125 133.265625 73.285156 C 133.265625 59.476562 122.03125 48.261719 108.171875 48.234375 Z M 108.171875 109.101562 C 88.390625 109.101562 72.332031 93.066406 72.332031 73.285156 C 72.332031 53.535156 88.390625 37.5 108.171875 37.5 C 127.984375 37.5 144.042969 53.535156 144.042969 73.285156 C 144.042969 93.066406 127.984375 109.101562 108.171875 109.101562 " fill-opacity="1" fill-rule="nonzero"/></g></svg>